ply
format ascii 1.0
comment Hand-authored unit quad with per-vertex "u"/"v" properties, for
comment pbrt_scenes/plymesh-uv.pbrt - exercises real per-vertex UV read out
comment of a PLY file (ply_mesh.h's own "u"/"v" vertex-property support)
comment threaded all the way through Shape "plymesh".
element vertex 4
property float x
property float y
property float z
property float u
property float v
element face 1
property list uchar int vertex_indices
end_header
0 0 0 0 0
1 0 0 1 0
1 1 0 1 1
0 1 0 0 1
4 0 1 2 3
